<?xml version="1.0" encoding="UTF-8" standalone="no"?>
<!DOCTYPE svg PUBLIC "-//W3C//DTD SVG 1.1//EN"
 "http://www.w3.org/Graphics/SVG/1.1/DTD/svg11.dtd">
<!-- Generated by graphviz version 8.0.5 (20230506.1012)
 -->
<!-- Title: snakemake_dag Pages: 1 -->
<svg width="729pt" height="859pt"
 viewBox="0.00 0.00 728.92 859.00" xmlns="http://www.w3.org/2000/svg" xmlns:xlink="http://www.w3.org/1999/xlink">
<g id="graph0" class="graph" transform="scale(1 1) rotate(0) translate(4 855)">
<title>snakemake_dag</title>
<polygon fill="white" stroke="none" points="-4,4 -4,-855 724.92,-855 724.92,4 -4,4"/>
<!-- 0 -->
<g id="node1" class="node">
<title>0</title>
<path fill="none" stroke="#59d856" stroke-width="2" stroke-dasharray="5,2" d="M247,-36C247,-36 217,-36 217,-36 211,-36 205,-30 205,-24 205,-24 205,-12 205,-12 205,-6 211,0 217,0 217,0 247,0 247,0 253,0 259,-6 259,-12 259,-12 259,-24 259,-24 259,-30 253,-36 247,-36"/>
<text text-anchor="middle" x="232" y="-14.88" font-family="sans" font-size="10.00">all</text>
</g>
<!-- 1 -->
<g id="node2" class="node">
<title>1</title>
<path fill="none" stroke="#56d88a" stroke-width="2" stroke-dasharray="5,2" d="M403.25,-108C403.25,-108 322.75,-108 322.75,-108 316.75,-108 310.75,-102 310.75,-96 310.75,-96 310.75,-84 310.75,-84 310.75,-78 316.75,-72 322.75,-72 322.75,-72 403.25,-72 403.25,-72 409.25,-72 415.25,-78 415.25,-84 415.25,-84 415.25,-96 415.25,-96 415.25,-102 409.25,-108 403.25,-108"/>
<text text-anchor="middle" x="363" y="-86.88" font-family="sans" font-size="10.00">annotate_variants</text>
</g>
<!-- 1&#45;&gt;0 -->
<g id="edge1" class="edge">
<title>1&#45;&gt;0</title>
<path fill="none" stroke="grey" stroke-width="2" d="M329.6,-71.15C311.74,-61.61 289.63,-49.79 270.98,-39.83"/>
<polygon fill="grey" stroke="grey" stroke-width="2" points="272.06,-36.37 261.59,-34.74 268.76,-42.54 272.06,-36.37"/>
</g>
<!-- 2 -->
<g id="node3" class="node">
<title>2</title>
<path fill="none" stroke="#56d8c1" stroke-width="2" stroke-dasharray="5,2" d="M554.62,-180C554.62,-180 491.38,-180 491.38,-180 485.38,-180 479.38,-174 479.38,-168 479.38,-168 479.38,-156 479.38,-156 479.38,-150 485.38,-144 491.38,-144 491.38,-144 554.62,-144 554.62,-144 560.62,-144 566.62,-150 566.62,-156 566.62,-156 566.62,-168 566.62,-168 566.62,-174 560.62,-180 554.62,-180"/>
<text text-anchor="middle" x="523" y="-158.88" font-family="sans" font-size="10.00">merge_filtered</text>
</g>
<!-- 2&#45;&gt;1 -->
<g id="edge4" class="edge">
<title>2&#45;&gt;1</title>
<path fill="none" stroke="grey" stroke-width="2" d="M482.21,-143.15C461.98,-134.3 437.3,-123.51 415.66,-114.04"/>
<polygon fill="grey" stroke="grey" stroke-width="2" points="416.56,-110.74 405.99,-109.93 413.75,-117.15 416.56,-110.74"/>
</g>
<!-- 3 -->
<g id="node4" class="node">
<title>3</title>
<path fill="none" stroke="#56d8a2" stroke-width="2" stroke-dasharray="5,2" d="M560.25,-252C560.25,-252 485.75,-252 485.75,-252 479.75,-252 473.75,-246 473.75,-240 473.75,-240 473.75,-228 473.75,-228 473.75,-222 479.75,-216 485.75,-216 485.75,-216 560.25,-216 560.25,-216 566.25,-216 572.25,-222 572.25,-228 572.25,-228 572.25,-240 572.25,-240 572.25,-246 566.25,-252 560.25,-252"/>
<text text-anchor="middle" x="523" y="-230.88" font-family="sans" font-size="10.00">FilterMutectCalls</text>
</g>
<!-- 3&#45;&gt;2 -->
<g id="edge7" class="edge">
<title>3&#45;&gt;2</title>
<path fill="none" stroke="grey" stroke-width="2" d="M523,-215.34C523,-208.75 523,-201.08 523,-193.67"/>
<polygon fill="grey" stroke="grey" stroke-width="2" points="526.5,-193.9 523,-183.9 519.5,-193.9 526.5,-193.9"/>
</g>
<!-- 4 -->
<g id="node5" class="node">
<title>4</title>
<path fill="none" stroke="#d8a456" stroke-width="2" stroke-dasharray="5,2" d="M410,-396C410,-396 380,-396 380,-396 374,-396 368,-390 368,-384 368,-384 368,-372 368,-372 368,-366 374,-360 380,-360 380,-360 410,-360 410,-360 416,-360 422,-366 422,-372 422,-372 422,-384 422,-384 422,-390 416,-396 410,-396"/>
<text text-anchor="middle" x="395" y="-374.88" font-family="sans" font-size="10.00">Mutect</text>
</g>
<!-- 4&#45;&gt;3 -->
<g id="edge8" class="edge">
<title>4&#45;&gt;3</title>
<path fill="none" stroke="grey" stroke-width="2" d="M385.68,-359.29C376.97,-340.03 367.33,-309.18 382,-288 399.7,-262.44 431.38,-249.18 460.23,-242.32"/>
<polygon fill="grey" stroke="grey" stroke-width="2" points="461.73,-245.16 470.8,-239.68 460.29,-238.31 461.73,-245.16"/>
</g>
<!-- 20 -->
<g id="node21" class="node">
<title>20</title>
<path fill="none" stroke="#56d8d8" stroke-width="2" stroke-dasharray="5,2" d="M531.25,-324C531.25,-324 402.75,-324 402.75,-324 396.75,-324 390.75,-318 390.75,-312 390.75,-312 390.75,-300 390.75,-300 390.75,-294 396.75,-288 402.75,-288 402.75,-288 531.25,-288 531.25,-288 537.25,-288 543.25,-294 543.25,-300 543.25,-300 543.25,-312 543.25,-312 543.25,-318 537.25,-324 531.25,-324"/>
<text text-anchor="middle" x="467" y="-302.88" font-family="sans" font-size="10.00">LearnReadOrientationModel</text>
</g>
<!-- 4&#45;&gt;20 -->
<g id="edge42" class="edge">
<title>4&#45;&gt;20</title>
<path fill="none" stroke="grey" stroke-width="2" d="M413.17,-359.34C421.12,-351.6 430.63,-342.36 439.43,-333.81"/>
<polygon fill="grey" stroke="grey" stroke-width="2" points="441.86,-336.38 446.59,-326.9 436.98,-331.36 441.86,-336.38"/>
</g>
<!-- 5 -->
<g id="node6" class="node">
<title>5</title>
<path fill="none" stroke="#d85656" stroke-width="2" stroke-dasharray="5,2" d="M507.75,-851C507.75,-851 430.25,-851 430.25,-851 424.25,-851 418.25,-845 418.25,-839 418.25,-839 418.25,-827 418.25,-827 418.25,-821 424.25,-815 430.25,-815 430.25,-815 507.75,-815 507.75,-815 513.75,-815 519.75,-821 519.75,-827 519.75,-827 519.75,-839 519.75,-839 519.75,-845 513.75,-851 507.75,-851"/>
<text text-anchor="middle" x="469" y="-829.88" font-family="sans" font-size="10.00">get_GATK_bundle</text>
</g>
<!-- 5&#45;&gt;3 -->
<g id="edge9" class="edge">
<title>5&#45;&gt;3</title>
<path fill="none" stroke="grey" stroke-width="2" d="M516.72,-814.03C534.52,-805.52 553.82,-793.9 568,-779 605.96,-739.11 621,-722.07 621,-667 621,-667 621,-667 621,-521 621,-454.31 684.73,-459.84 704,-396 717.87,-350.05 732.78,-326.42 704,-288 689.6,-268.78 632.26,-254.18 585.93,-245.22"/>
<polygon fill="grey" stroke="grey" stroke-width="2" points="585.67,-241.24 575.2,-242.84 584.38,-248.12 585.67,-241.24"/>
</g>
<!-- 5&#45;&gt;4 -->
<g id="edge12" class="edge">
<title>5&#45;&gt;4</title>
<path fill="none" stroke="grey" stroke-width="2" d="M497.05,-814.2C509.92,-804.94 524.6,-792.69 535,-779 567.76,-735.87 583,-721.16 583,-667 583,-667 583,-667 583,-521 583,-484.04 489.29,-428.49 434.19,-399.02"/>
<polygon fill="grey" stroke="grey" stroke-width="2" points="435.22,-395.55 424.74,-393.97 431.95,-401.74 435.22,-395.55"/>
</g>
<!-- 6 -->
<g id="node7" class="node">
<title>6</title>
<path fill="none" stroke="#a7d856" stroke-width="2" stroke-dasharray="5,2" d="M191.5,-468C191.5,-468 124.5,-468 124.5,-468 118.5,-468 112.5,-462 112.5,-456 112.5,-456 112.5,-444 112.5,-444 112.5,-438 118.5,-432 124.5,-432 124.5,-432 191.5,-432 191.5,-432 197.5,-432 203.5,-438 203.5,-444 203.5,-444 203.5,-456 203.5,-456 203.5,-462 197.5,-468 191.5,-468"/>
<text text-anchor="middle" x="158" y="-446.88" font-family="sans" font-size="10.00">MergeSamFiles</text>
</g>
<!-- 5&#45;&gt;6 -->
<g id="edge16" class="edge">
<title>5&#45;&gt;6</title>
<path fill="none" stroke="grey" stroke-width="2" d="M417.29,-831.19C320.13,-828.74 114.96,-818.86 58,-779 12.07,-746.86 0,-723.06 0,-667 0,-667 0,-667 0,-593 0,-536.85 55.88,-497.26 101.18,-474.4"/>
<polygon fill="grey" stroke="grey" stroke-width="2" points="103.25,-477.32 110.72,-469.81 100.2,-471.02 103.25,-477.32"/>
</g>
<!-- 7 -->
<g id="node8" class="node">
<title>7</title>
<path fill="none" stroke="#88d856" stroke-width="2" stroke-dasharray="5,2" d="M180.38,-540C180.38,-540 133.62,-540 133.62,-540 127.62,-540 121.62,-534 121.62,-528 121.62,-528 121.62,-516 121.62,-516 121.62,-510 127.62,-504 133.62,-504 133.62,-504 180.38,-504 180.38,-504 186.38,-504 192.38,-510 192.38,-516 192.38,-516 192.38,-528 192.38,-528 192.38,-534 186.38,-540 180.38,-540"/>
<text text-anchor="middle" x="157" y="-518.88" font-family="sans" font-size="10.00">ApplyBQSR</text>
</g>
<!-- 5&#45;&gt;7 -->
<g id="edge18" class="edge">
<title>5&#45;&gt;7</title>
<path fill="none" stroke="grey" stroke-width="2" d="M417.38,-827.88C351.12,-821.52 241.32,-807 213,-779 196.95,-763.13 172.13,-618.04 161.79,-553.6"/>
<polygon fill="grey" stroke="grey" stroke-width="2" points="164.78,-552.13 159.75,-542.8 157.86,-553.23 164.78,-552.13"/>
</g>
<!-- 8 -->
<g id="node9" class="node">
<title>8</title>
<path fill="none" stroke="#d8bc56" stroke-width="2" stroke-dasharray="5,2" d="M153.5,-684C153.5,-684 104.5,-684 104.5,-684 98.5,-684 92.5,-678 92.5,-672 92.5,-672 92.5,-660 92.5,-660 92.5,-654 98.5,-648 104.5,-648 104.5,-648 153.5,-648 153.5,-648 159.5,-648 165.5,-654 165.5,-660 165.5,-660 165.5,-672 165.5,-672 165.5,-678 159.5,-684 153.5,-684"/>
<text text-anchor="middle" x="129" y="-662.88" font-family="sans" font-size="10.00">bwa_mem2</text>
</g>
<!-- 5&#45;&gt;8 -->
<g id="edge21" class="edge">
<title>5&#45;&gt;8</title>
<path fill="none" stroke="grey" stroke-width="2" d="M417.4,-832.54C325.58,-832.28 139.6,-825.82 99,-779 78.85,-755.76 93.44,-720.36 108.48,-695.6"/>
<polygon fill="grey" stroke="grey" stroke-width="2" points="112.03,-697.02 114.52,-686.72 106.15,-693.21 112.03,-697.02"/>
</g>
<!-- 10 -->
<g id="node11" class="node">
<title>10</title>
<path fill="none" stroke="#56d873" stroke-width="2" stroke-dasharray="5,2" d="M315.62,-767.5C315.62,-767.5 234.38,-767.5 234.38,-767.5 228.38,-767.5 222.38,-761.5 222.38,-755.5 222.38,-755.5 222.38,-743.5 222.38,-743.5 222.38,-737.5 228.38,-731.5 234.38,-731.5 234.38,-731.5 315.62,-731.5 315.62,-731.5 321.62,-731.5 327.62,-737.5 327.62,-743.5 327.62,-743.5 327.62,-755.5 327.62,-755.5 327.62,-761.5 321.62,-767.5 315.62,-767.5"/>
<text text-anchor="middle" x="275" y="-746.38" font-family="sans" font-size="10.00">bwa_mem2_index</text>
</g>
<!-- 5&#45;&gt;10 -->
<g id="edge23" class="edge">
<title>5&#45;&gt;10</title>
<path fill="none" stroke="grey" stroke-width="2" d="M421.95,-814.02C396.38,-804.05 364.29,-791.23 336,-779 332.19,-777.35 328.27,-775.61 324.33,-773.84"/>
<polygon fill="grey" stroke="grey" stroke-width="2" points="325.14,-770.45 314.59,-769.48 322.23,-776.82 325.14,-770.45"/>
</g>
<!-- 11 -->
<g id="node12" class="node">
<title>11</title>
<path fill="none" stroke="#d88d56" stroke-width="2" stroke-dasharray="5,2" d="M115.62,-612C115.62,-612 40.38,-612 40.38,-612 34.38,-612 28.38,-606 28.38,-600 28.38,-600 28.38,-588 28.38,-588 28.38,-582 34.38,-576 40.38,-576 40.38,-576 115.62,-576 115.62,-576 121.62,-576 127.62,-582 127.62,-588 127.62,-588 127.62,-600 127.62,-600 127.62,-606 121.62,-612 115.62,-612"/>
<text text-anchor="middle" x="78" y="-590.88" font-family="sans" font-size="10.00">BaseRecalibrator</text>
</g>
<!-- 5&#45;&gt;11 -->
<g id="edge25" class="edge">
<title>5&#45;&gt;11</title>
<path fill="none" stroke="grey" stroke-width="2" d="M417.29,-832.65C323.12,-832.64 129.37,-826.66 86,-779 48.1,-737.36 58.56,-665.94 68.77,-625.42"/>
<polygon fill="grey" stroke="grey" stroke-width="2" points="72.92,-625.51 72.16,-614.95 66.16,-623.68 72.92,-625.51"/>
</g>
<!-- 12 -->
<g id="node13" class="node">
<title>12</title>
<path fill="none" stroke="#a7d856" stroke-width="2" stroke-dasharray="5,2" d="M462.5,-468C462.5,-468 395.5,-468 395.5,-468 389.5,-468 383.5,-462 383.5,-456 383.5,-456 383.5,-444 383.5,-444 383.5,-438 389.5,-432 395.5,-432 395.5,-432 462.5,-432 462.5,-432 468.5,-432 474.5,-438 474.5,-444 474.5,-444 474.5,-456 474.5,-456 474.5,-462 468.5,-468 462.5,-468"/>
<text text-anchor="middle" x="429" y="-446.88" font-family="sans" font-size="10.00">MergeSamFiles</text>
</g>
<!-- 5&#45;&gt;12 -->
<g id="edge27" class="edge">
<title>5&#45;&gt;12</title>
<path fill="none" stroke="grey" stroke-width="2" d="M483.3,-814.43C505.31,-785.53 545,-725.35 545,-667 545,-667 545,-667 545,-593 545,-543.45 502.12,-501.66 468.5,-476.51"/>
<polygon fill="grey" stroke="grey" stroke-width="2" points="470.13,-472.94 459.97,-469.94 466.05,-478.62 470.13,-472.94"/>
</g>
<!-- 13 -->
<g id="node14" class="node">
<title>13</title>
<path fill="none" stroke="#88d856" stroke-width="2" stroke-dasharray="5,2" d="M452.38,-540C452.38,-540 405.62,-540 405.62,-540 399.62,-540 393.62,-534 393.62,-528 393.62,-528 393.62,-516 393.62,-516 393.62,-510 399.62,-504 405.62,-504 405.62,-504 452.38,-504 452.38,-504 458.38,-504 464.38,-510 464.38,-516 464.38,-516 464.38,-528 464.38,-528 464.38,-534 458.38,-540 452.38,-540"/>
<text text-anchor="middle" x="429" y="-518.88" font-family="sans" font-size="10.00">ApplyBQSR</text>
</g>
<!-- 5&#45;&gt;13 -->
<g id="edge29" class="edge">
<title>5&#45;&gt;13</title>
<path fill="none" stroke="grey" stroke-width="2" d="M475.84,-814.25C491.31,-771.19 524.85,-658.63 488,-576 483.45,-565.79 475.84,-556.72 467.58,-549.1"/>
<polygon fill="grey" stroke="grey" stroke-width="2" points="469.64,-545.58 459.73,-541.84 465.14,-550.94 469.64,-545.58"/>
</g>
<!-- 14 -->
<g id="node15" class="node">
<title>14</title>
<path fill="none" stroke="#d8bc56" stroke-width="2" stroke-dasharray="5,2" d="M398.5,-684C398.5,-684 349.5,-684 349.5,-684 343.5,-684 337.5,-678 337.5,-672 337.5,-672 337.5,-660 337.5,-660 337.5,-654 343.5,-648 349.5,-648 349.5,-648 398.5,-648 398.5,-648 404.5,-648 410.5,-654 410.5,-660 410.5,-660 410.5,-672 410.5,-672 410.5,-678 404.5,-684 398.5,-684"/>
<text text-anchor="middle" x="374" y="-662.88" font-family="sans" font-size="10.00">bwa_mem2</text>
</g>
<!-- 5&#45;&gt;14 -->
<g id="edge32" class="edge">
<title>5&#45;&gt;14</title>
<path fill="none" stroke="grey" stroke-width="2" d="M460.91,-814.09C450.53,-791.6 431.5,-752.06 412,-720 406.96,-711.72 401.04,-703.04 395.39,-695.17"/>
<polygon fill="grey" stroke="grey" stroke-width="2" points="397.45,-692.69 388.71,-686.69 391.8,-696.83 397.45,-692.69"/>
</g>
<!-- 16 -->
<g id="node17" class="node">
<title>16</title>
<path fill="none" stroke="#d88d56" stroke-width="2" stroke-dasharray="5,2" d="M466.62,-612C466.62,-612 391.38,-612 391.38,-612 385.38,-612 379.38,-606 379.38,-600 379.38,-600 379.38,-588 379.38,-588 379.38,-582 385.38,-576 391.38,-576 391.38,-576 466.62,-576 466.62,-576 472.62,-576 478.62,-582 478.62,-588 478.62,-588 478.62,-600 478.62,-600 478.62,-606 472.62,-612 466.62,-612"/>
<text text-anchor="middle" x="429" y="-590.88" font-family="sans" font-size="10.00">BaseRecalibrator</text>
</g>
<!-- 5&#45;&gt;16 -->
<g id="edge35" class="edge">
<title>5&#45;&gt;16</title>
<path fill="none" stroke="grey" stroke-width="2" d="M465.99,-814.19C459.2,-773.94 442.6,-675.61 434.14,-625.47"/>
<polygon fill="grey" stroke="grey" stroke-width="2" points="437.1,-623.97 431.99,-614.7 430.2,-625.14 437.1,-623.97"/>
</g>
<!-- 18 -->
<g id="node19" class="node">
<title>18</title>
<path fill="none" stroke="#70d856" stroke-width="2" stroke-dasharray="5,2" d="M546.38,-396C546.38,-396 451.62,-396 451.62,-396 445.62,-396 439.62,-390 439.62,-384 439.62,-384 439.62,-372 439.62,-372 439.62,-366 445.62,-360 451.62,-360 451.62,-360 546.38,-360 546.38,-360 552.38,-360 558.38,-366 558.38,-372 558.38,-372 558.38,-384 558.38,-384 558.38,-390 552.38,-396 546.38,-396"/>
<text text-anchor="middle" x="499" y="-374.88" font-family="sans" font-size="10.00">GetPileupSummaries</text>
</g>
<!-- 5&#45;&gt;18 -->
<g id="edge39" class="edge">
<title>5&#45;&gt;18</title>
<path fill="none" stroke="grey" stroke-width="2" d="M520.49,-828.87C557.55,-823.83 605.94,-811.05 635,-779 669.19,-741.28 659,-717.91 659,-667 659,-667 659,-667 659,-521 659,-464.63 602.75,-425.18 556.96,-402.41"/>
<polygon fill="grey" stroke="grey" stroke-width="2" points="557.81,-398.99 547.28,-397.84 554.8,-405.31 557.81,-398.99"/>
</g>
<!-- 19 -->
<g id="node20" class="node">
<title>19</title>
<path fill="none" stroke="#70d856" stroke-width="2" stroke-dasharray="5,2" d="M683.38,-396C683.38,-396 588.62,-396 588.62,-396 582.62,-396 576.62,-390 576.62,-384 576.62,-384 576.62,-372 576.62,-372 576.62,-366 582.62,-360 588.62,-360 588.62,-360 683.38,-360 683.38,-360 689.38,-360 695.38,-366 695.38,-372 695.38,-372 695.38,-384 695.38,-384 695.38,-390 689.38,-396 683.38,-396"/>
<text text-anchor="middle" x="636" y="-374.88" font-family="sans" font-size="10.00">GetPileupSummaries</text>
</g>
<!-- 5&#45;&gt;19 -->
<g id="edge41" class="edge">
<title>5&#45;&gt;19</title>
<path fill="none" stroke="grey" stroke-width="2" d="M520.39,-830.81C563.29,-827.09 623.32,-815.15 661,-779 698.73,-742.81 697,-719.29 697,-667 697,-667 697,-667 697,-521 697,-478.98 674.17,-435.22 656.44,-407.58"/>
<polygon fill="grey" stroke="grey" stroke-width="2" points="658.7,-405.16 650.24,-398.78 652.87,-409.04 658.7,-405.16"/>
</g>
<!-- 6&#45;&gt;4 -->
<g id="edge13" class="edge">
<title>6&#45;&gt;4</title>
<path fill="none" stroke="grey" stroke-width="2" d="M204.24,-439.35C242.72,-430.76 299.02,-416.9 355.3,-397.03"/>
<polygon fill="grey" stroke="grey" stroke-width="2" points="357.09,-400.38 365.31,-393.69 354.71,-393.8 357.09,-400.38"/>
</g>
<!-- 6&#45;&gt;18 -->
<g id="edge38" class="edge">
<title>6&#45;&gt;18</title>
<path fill="none" stroke="grey" stroke-width="2" d="M204.04,-440.83C255.83,-431.48 342.75,-415.27 426.39,-396.97"/>
<polygon fill="grey" stroke="grey" stroke-width="2" points="427.96,-399.76 436.97,-394.19 426.45,-392.93 427.96,-399.76"/>
</g>
<!-- 25 -->
<g id="node26" class="node">
<title>25</title>
<path fill="none" stroke="#568ad8" stroke-width="2" stroke-dasharray="5,2" d="M192.12,-396C192.12,-396 125.88,-396 125.88,-396 119.88,-396 113.88,-390 113.88,-384 113.88,-384 113.88,-372 113.88,-372 113.88,-366 119.88,-360 125.88,-360 125.88,-360 192.12,-360 192.12,-360 198.12,-360 204.12,-366 204.12,-372 204.12,-372 204.12,-384 204.12,-384 204.12,-390 198.12,-396 192.12,-396"/>
<text text-anchor="middle" x="159" y="-374.88" font-family="sans" font-size="10.00">samtools_stats</text>
</g>
<!-- 6&#45;&gt;25 -->
<g id="edge47" class="edge">
<title>6&#45;&gt;25</title>
<path fill="none" stroke="grey" stroke-width="2" d="M158.25,-431.34C158.35,-424.75 158.46,-417.08 158.56,-409.67"/>
<polygon fill="grey" stroke="grey" stroke-width="2" points="162.1,-409.95 158.74,-399.9 155.1,-409.85 162.1,-409.95"/>
</g>
<!-- 7&#45;&gt;6 -->
<g id="edge15" class="edge">
<title>7&#45;&gt;6</title>
<path fill="none" stroke="grey" stroke-width="2" d="M157.25,-503.34C157.35,-496.75 157.46,-489.08 157.56,-481.67"/>
<polygon fill="grey" stroke="grey" stroke-width="2" points="161.1,-481.95 157.74,-471.9 154.1,-481.85 161.1,-481.95"/>
</g>
<!-- 8&#45;&gt;7 -->
<g id="edge17" class="edge">
<title>8&#45;&gt;7</title>
<path fill="none" stroke="grey" stroke-width="2" d="M132.55,-647.02C137.2,-623.44 145.42,-581.73 151.04,-553.25"/>
<polygon fill="grey" stroke="grey" stroke-width="2" points="154.98,-553.33 153.48,-542.84 148.11,-551.97 154.98,-553.33"/>
</g>
<!-- 8&#45;&gt;11 -->
<g id="edge24" class="edge">
<title>8&#45;&gt;11</title>
<path fill="none" stroke="grey" stroke-width="2" d="M116.13,-647.34C110.8,-640.01 104.47,-631.34 98.53,-623.18"/>
<polygon fill="grey" stroke="grey" stroke-width="2" points="100.76,-620.92 92.04,-614.9 95.1,-625.05 100.76,-620.92"/>
</g>
<!-- 9 -->
<g id="node10" class="node">
<title>9</title>
<path fill="none" stroke="#d86e56" stroke-width="2" stroke-dasharray="5,2" d="M153.62,-779C153.62,-779 120.38,-779 120.38,-779 114.38,-779 108.38,-773 108.38,-767 108.38,-767 108.38,-732 108.38,-732 108.38,-726 114.38,-720 120.38,-720 120.38,-720 153.62,-720 153.62,-720 159.62,-720 165.62,-726 165.62,-732 165.62,-732 165.62,-767 165.62,-767 165.62,-773 159.62,-779 153.62,-779"/>
<text text-anchor="middle" x="137" y="-765.5" font-family="sans" font-size="10.00">fastp_se</text>
<text text-anchor="middle" x="137" y="-752.75" font-family="sans" font-size="10.00">g: T</text>
<text text-anchor="middle" x="137" y="-740" font-family="sans" font-size="10.00">s: P1</text>
<text text-anchor="middle" x="137" y="-727.25" font-family="sans" font-size="10.00">u: </text>
</g>
<!-- 9&#45;&gt;8 -->
<g id="edge20" class="edge">
<title>9&#45;&gt;8</title>
<path fill="none" stroke="grey" stroke-width="2" d="M134.11,-719.08C133.42,-712.07 132.69,-704.59 132,-697.54"/>
<polygon fill="grey" stroke="grey" stroke-width="2" points="135.2,-697.37 130.74,-687.76 128.24,-698.05 135.2,-697.37"/>
</g>
<!-- 23 -->
<g id="node24" class="node">
<title>23</title>
<path fill="none" stroke="#56a2d8" stroke-width="2" stroke-dasharray="5,2" d="M292.38,-684C292.38,-684 233.62,-684 233.62,-684 227.62,-684 221.62,-678 221.62,-672 221.62,-672 221.62,-660 221.62,-660 221.62,-654 227.62,-648 233.62,-648 233.62,-648 292.38,-648 292.38,-648 298.38,-648 304.38,-654 304.38,-660 304.38,-660 304.38,-672 304.38,-672 304.38,-678 298.38,-684 292.38,-684"/>
<text text-anchor="middle" x="263" y="-662.88" font-family="sans" font-size="10.00">fastp_multiqc</text>
</g>
<!-- 9&#45;&gt;23 -->
<g id="edge43" class="edge">
<title>9&#45;&gt;23</title>
<path fill="none" stroke="grey" stroke-width="2" d="M166.54,-729.39C183.85,-718.2 205.91,-703.93 224.56,-691.87"/>
<polygon fill="grey" stroke="grey" stroke-width="2" points="226.87,-694.24 233.37,-685.87 223.07,-688.36 226.87,-694.24"/>
</g>
<!-- 10&#45;&gt;8 -->
<g id="edge22" class="edge">
<title>10&#45;&gt;8</title>
<path fill="none" stroke="grey" stroke-width="2" d="M242.96,-730.61C222.3,-719.08 195.17,-703.94 172.57,-691.32"/>
<polygon fill="grey" stroke="grey" stroke-width="2" points="173.66,-687.8 163.22,-685.98 170.24,-693.91 173.66,-687.8"/>
</g>
<!-- 10&#45;&gt;14 -->
<g id="edge33" class="edge">
<title>10&#45;&gt;14</title>
<path fill="none" stroke="grey" stroke-width="2" d="M296.48,-730.82C309.88,-719.78 327.37,-705.39 342.34,-693.07"/>
<polygon fill="grey" stroke="grey" stroke-width="2" points="344.72,-694.99 350.22,-685.93 340.27,-689.58 344.72,-694.99"/>
</g>
<!-- 11&#45;&gt;7 -->
<g id="edge19" class="edge">
<title>11&#45;&gt;7</title>
<path fill="none" stroke="grey" stroke-width="2" d="M97.94,-575.34C106.85,-567.44 117.54,-557.96 127.36,-549.26"/>
<polygon fill="grey" stroke="grey" stroke-width="2" points="129.63,-552.15 134.8,-542.9 124.99,-546.91 129.63,-552.15"/>
</g>
<!-- 12&#45;&gt;4 -->
<g id="edge14" class="edge">
<title>12&#45;&gt;4</title>
<path fill="none" stroke="grey" stroke-width="2" d="M420.42,-431.34C417.06,-424.43 413.12,-416.31 409.36,-408.56"/>
<polygon fill="grey" stroke="grey" stroke-width="2" points="412.21,-406.37 404.7,-398.9 405.92,-409.43 412.21,-406.37"/>
</g>
<!-- 12&#45;&gt;19 -->
<g id="edge40" class="edge">
<title>12&#45;&gt;19</title>
<path fill="none" stroke="grey" stroke-width="2" d="M475.45,-433.29C503.66,-423.75 540.08,-411.44 571.1,-400.95"/>
<polygon fill="grey" stroke="grey" stroke-width="2" points="572.78,-403.4 581.13,-396.88 570.54,-396.77 572.78,-403.4"/>
</g>
<!-- 26 -->
<g id="node27" class="node">
<title>26</title>
<path fill="none" stroke="#568ad8" stroke-width="2" stroke-dasharray="5,2" d="M338.12,-396C338.12,-396 271.88,-396 271.88,-396 265.88,-396 259.88,-390 259.88,-384 259.88,-384 259.88,-372 259.88,-372 259.88,-366 265.88,-360 271.88,-360 271.88,-360 338.12,-360 338.12,-360 344.12,-360 350.12,-366 350.12,-372 350.12,-372 350.12,-384 350.12,-384 350.12,-390 344.12,-396 338.12,-396"/>
<text text-anchor="middle" x="305" y="-374.88" font-family="sans" font-size="10.00">samtools_stats</text>
</g>
<!-- 12&#45;&gt;26 -->
<g id="edge48" class="edge">
<title>12&#45;&gt;26</title>
<path fill="none" stroke="grey" stroke-width="2" d="M397.39,-431.15C382.23,-422.6 363.85,-412.22 347.49,-402.99"/>
<polygon fill="grey" stroke="grey" stroke-width="2" points="348.98,-399.68 338.55,-397.81 345.54,-405.78 348.98,-399.68"/>
</g>
<!-- 13&#45;&gt;12 -->
<g id="edge26" class="edge">
<title>13&#45;&gt;12</title>
<path fill="none" stroke="grey" stroke-width="2" d="M429,-503.34C429,-496.75 429,-489.08 429,-481.67"/>
<polygon fill="grey" stroke="grey" stroke-width="2" points="432.5,-481.9 429,-471.9 425.5,-481.9 432.5,-481.9"/>
</g>
<!-- 14&#45;&gt;13 -->
<g id="edge28" class="edge">
<title>14&#45;&gt;13</title>
<path fill="none" stroke="grey" stroke-width="2" d="M368.65,-647.07C364.11,-628.45 359.8,-598.88 370,-576 374.55,-565.79 382.16,-556.72 390.42,-549.1"/>
<polygon fill="grey" stroke="grey" stroke-width="2" points="392.86,-550.94 398.27,-541.84 388.36,-545.58 392.86,-550.94"/>
</g>
<!-- 14&#45;&gt;16 -->
<g id="edge34" class="edge">
<title>14&#45;&gt;16</title>
<path fill="none" stroke="grey" stroke-width="2" d="M387.88,-647.34C393.7,-639.93 400.6,-631.14 407.08,-622.9"/>
<polygon fill="grey" stroke="grey" stroke-width="2" points="410.51,-624.93 413.93,-614.9 405,-620.6 410.51,-624.93"/>
</g>
<!-- 15 -->
<g id="node16" class="node">
<title>15</title>
<path fill="none" stroke="#d86e56" stroke-width="2" stroke-dasharray="5,2" d="M390.62,-779C390.62,-779 357.38,-779 357.38,-779 351.38,-779 345.38,-773 345.38,-767 345.38,-767 345.38,-732 345.38,-732 345.38,-726 351.38,-720 357.38,-720 357.38,-720 390.62,-720 390.62,-720 396.62,-720 402.62,-726 402.62,-732 402.62,-732 402.62,-767 402.62,-767 402.62,-773 396.62,-779 390.62,-779"/>
<text text-anchor="middle" x="374" y="-765.5" font-family="sans" font-size="10.00">fastp_se</text>
<text text-anchor="middle" x="374" y="-752.75" font-family="sans" font-size="10.00">g: N</text>
<text text-anchor="middle" x="374" y="-740" font-family="sans" font-size="10.00">s: P1</text>
<text text-anchor="middle" x="374" y="-727.25" font-family="sans" font-size="10.00">u: </text>
</g>
<!-- 15&#45;&gt;14 -->
<g id="edge31" class="edge">
<title>15&#45;&gt;14</title>
<path fill="none" stroke="grey" stroke-width="2" d="M374,-719.08C374,-712.07 374,-704.59 374,-697.54"/>
<polygon fill="grey" stroke="grey" stroke-width="2" points="377.5,-697.76 374,-687.76 370.5,-697.76 377.5,-697.76"/>
</g>
<!-- 15&#45;&gt;23 -->
<g id="edge44" class="edge">
<title>15&#45;&gt;23</title>
<path fill="none" stroke="grey" stroke-width="2" d="M344.58,-725.69C342.03,-723.76 339.47,-721.84 337,-720 324.64,-710.82 310.96,-700.94 298.77,-692.24"/>
<polygon fill="grey" stroke="grey" stroke-width="2" points="300.68,-688.88 290.5,-685.94 296.62,-694.58 300.68,-688.88"/>
</g>
<!-- 16&#45;&gt;13 -->
<g id="edge30" class="edge">
<title>16&#45;&gt;13</title>
<path fill="none" stroke="grey" stroke-width="2" d="M429,-575.34C429,-568.75 429,-561.08 429,-553.67"/>
<polygon fill="grey" stroke="grey" stroke-width="2" points="432.5,-553.9 429,-543.9 425.5,-553.9 432.5,-553.9"/>
</g>
<!-- 17 -->
<g id="node18" class="node">
<title>17</title>
<path fill="none" stroke="#5673d8" stroke-width="2" stroke-dasharray="5,2" d="M682.88,-324C682.88,-324 573.12,-324 573.12,-324 567.12,-324 561.12,-318 561.12,-312 561.12,-312 561.12,-300 561.12,-300 561.12,-294 567.12,-288 573.12,-288 573.12,-288 682.88,-288 682.88,-288 688.88,-288 694.88,-294 694.88,-300 694.88,-300 694.88,-312 694.88,-312 694.88,-318 688.88,-324 682.88,-324"/>
<text text-anchor="middle" x="628" y="-302.88" font-family="sans" font-size="10.00">CalculateContamination</text>
</g>
<!-- 17&#45;&gt;3 -->
<g id="edge10" class="edge">
<title>17&#45;&gt;3</title>
<path fill="none" stroke="grey" stroke-width="2" d="M601.23,-287.15C588.77,-278.84 573.73,-268.82 560.18,-259.79"/>
<polygon fill="grey" stroke="grey" stroke-width="2" points="561.98,-256.45 551.72,-253.81 558.1,-262.27 561.98,-256.45"/>
</g>
<!-- 18&#45;&gt;17 -->
<g id="edge36" class="edge">
<title>18&#45;&gt;17</title>
<path fill="none" stroke="grey" stroke-width="2" d="M531.89,-359.15C547.66,-350.6 566.77,-340.22 583.79,-330.99"/>
<polygon fill="grey" stroke="grey" stroke-width="2" points="586.05,-333.66 593.17,-325.81 582.72,-327.51 586.05,-333.66"/>
</g>
<!-- 19&#45;&gt;17 -->
<g id="edge37" class="edge">
<title>19&#45;&gt;17</title>
<path fill="none" stroke="grey" stroke-width="2" d="M633.98,-359.34C633.23,-352.75 632.35,-345.08 631.5,-337.67"/>
<polygon fill="grey" stroke="grey" stroke-width="2" points="634.66,-337.44 630.05,-327.9 627.7,-338.23 634.66,-337.44"/>
</g>
<!-- 20&#45;&gt;3 -->
<g id="edge11" class="edge">
<title>20&#45;&gt;3</title>
<path fill="none" stroke="grey" stroke-width="2" d="M481.13,-287.34C487.05,-279.93 494.09,-271.14 500.68,-262.9"/>
<polygon fill="grey" stroke="grey" stroke-width="2" points="504.16,-264.9 507.68,-254.9 498.7,-260.52 504.16,-264.9"/>
</g>
<!-- 21 -->
<g id="node22" class="node">
<title>21</title>
<path fill="none" stroke="#d6d856" stroke-width="2" stroke-dasharray="5,2" d="M336.38,-180C336.38,-180 271.62,-180 271.62,-180 265.62,-180 259.62,-174 259.62,-168 259.62,-168 259.62,-156 259.62,-156 259.62,-150 265.62,-144 271.62,-144 271.62,-144 336.38,-144 336.38,-144 342.38,-144 348.38,-150 348.38,-156 348.38,-156 348.38,-168 348.38,-168 348.38,-174 342.38,-180 336.38,-180"/>
<text text-anchor="middle" x="304" y="-158.88" font-family="sans" font-size="10.00">get_vep_cache</text>
</g>
<!-- 21&#45;&gt;1 -->
<g id="edge5" class="edge">
<title>21&#45;&gt;1</title>
<path fill="none" stroke="grey" stroke-width="2" d="M318.89,-143.34C325.2,-135.85 332.7,-126.95 339.71,-118.63"/>
<polygon fill="grey" stroke="grey" stroke-width="2" points="343.14,-120.8 346.91,-110.9 337.79,-116.29 343.14,-120.8"/>
</g>
<!-- 22 -->
<g id="node23" class="node">
<title>22</title>
<path fill="none" stroke="#56c1d8" stroke-width="2" stroke-dasharray="5,2" d="M449.75,-180C449.75,-180 378.25,-180 378.25,-180 372.25,-180 366.25,-174 366.25,-168 366.25,-168 366.25,-156 366.25,-156 366.25,-150 372.25,-144 378.25,-144 378.25,-144 449.75,-144 449.75,-144 455.75,-144 461.75,-150 461.75,-156 461.75,-156 461.75,-168 461.75,-168 461.75,-174 455.75,-180 449.75,-180"/>
<text text-anchor="middle" x="414" y="-158.88" font-family="sans" font-size="10.00">get_vep_plugins</text>
</g>
<!-- 22&#45;&gt;1 -->
<g id="edge6" class="edge">
<title>22&#45;&gt;1</title>
<path fill="none" stroke="grey" stroke-width="2" d="M401.13,-143.34C395.8,-136.01 389.47,-127.34 383.53,-119.18"/>
<polygon fill="grey" stroke="grey" stroke-width="2" points="385.76,-116.92 377.04,-110.9 380.1,-121.05 385.76,-116.92"/>
</g>
<!-- 23&#45;&gt;0 -->
<g id="edge2" class="edge">
<title>23&#45;&gt;0</title>
<path fill="none" stroke="grey" stroke-width="2" d="M256.58,-647.34C247.5,-620.75 232,-568.67 232,-523 232,-523 232,-523 232,-161 232,-122.65 232,-78.48 232,-49.72"/>
<polygon fill="grey" stroke="grey" stroke-width="2" points="235.5,-49.93 232,-39.93 228.5,-49.93 235.5,-49.93"/>
</g>
<!-- 24 -->
<g id="node25" class="node">
<title>24</title>
<path fill="none" stroke="#bed856" stroke-width="2" stroke-dasharray="5,2" d="M192.12,-324C192.12,-324 137.88,-324 137.88,-324 131.88,-324 125.88,-318 125.88,-312 125.88,-312 125.88,-300 125.88,-300 125.88,-294 131.88,-288 137.88,-288 137.88,-288 192.12,-288 192.12,-288 198.12,-288 204.12,-294 204.12,-300 204.12,-300 204.12,-312 204.12,-312 204.12,-318 198.12,-324 192.12,-324"/>
<text text-anchor="middle" x="165" y="-302.88" font-family="sans" font-size="10.00">bwa_multiqc</text>
</g>
<!-- 24&#45;&gt;0 -->
<g id="edge3" class="edge">
<title>24&#45;&gt;0</title>
<path fill="none" stroke="grey" stroke-width="2" d="M168.85,-287.12C177.31,-248.01 198.35,-151.97 218,-72 219.84,-64.51 221.92,-56.46 223.9,-48.95"/>
<polygon fill="grey" stroke="grey" stroke-width="2" points="227.99,-49.19 227.18,-38.63 221.22,-47.39 227.99,-49.19"/>
</g>
<!-- 25&#45;&gt;24 -->
<g id="edge45" class="edge">
<title>25&#45;&gt;24</title>
<path fill="none" stroke="grey" stroke-width="2" d="M160.51,-359.34C161.08,-352.75 161.74,-345.08 162.37,-337.67"/>
<polygon fill="grey" stroke="grey" stroke-width="2" points="166.1,-338.16 163.47,-327.9 159.12,-337.57 166.1,-338.16"/>
</g>
<!-- 26&#45;&gt;24 -->
<g id="edge46" class="edge">
<title>26&#45;&gt;24</title>
<path fill="none" stroke="grey" stroke-width="2" d="M269.31,-359.15C251.95,-350.47 230.85,-339.92 212.18,-330.59"/>
<polygon fill="grey" stroke="grey" stroke-width="2" points="213.13,-327.15 202.62,-325.81 210,-333.42 213.13,-327.15"/>
</g>
</g>
</svg>
